<?xml version="1.0" encoding="iso-8859-1"?>
<!-- Uploaded to: SVG Repo, www.svgrepo.com, Generator: SVG Repo Mixer Tools -->
<svg fill="#000000" height="800px" width="800px" version="1.1" id="Layer_1" xmlns="http://www.w3.org/2000/svg" xmlns:xlink="http://www.w3.org/1999/xlink" 
	 viewBox="0 0 512.002 512.002" xml:space="preserve">
<g>
	<g>
		<path d="M267.057,186.055l-76.041-0.144c-9.803-11.409-15.509-31.081-13.884-45.674c-9.992-1.269-20.243-0.067-29.814,3.664
			c-15.638,6.096-28.07,18.372-34.363,33.931l-27.178,67.194c-4.998,12.357-4.764,26.214,0.649,38.395
			c5.296,11.917,15.111,21.218,27.257,25.898H61.342L32.801,164.122c-1.763-8.972-10.464-14.811-19.436-13.051
			c-8.971,1.763-14.814,10.465-13.051,19.436l31.167,158.558c1.526,7.763,8.332,13.362,16.244,13.362h45.096v57.342l-51.116,27.992
			c-5.346,2.927-7.307,9.635-4.379,14.981c2.927,5.345,9.632,7.307,14.981,4.379l51.552-28.23l51.552,28.23
			c5.347,2.929,12.055,0.964,14.981-4.379c2.928-5.346,0.967-12.053-4.379-14.981l-51.116-27.992v-57.342h48.714
			c9.143,0,16.555-7.412,16.555-16.555c0-3.451-1.058-6.654-2.865-9.306l16.65,3.882v-49.285l-19.513-4.549l12.892-26.579
			c0,0-2.584-0.257-5.839-0.582c-8.092-0.806-15.173-5.791-18.675-13.13l-17.37-36.405l25.756,29.33
			c3.797,4.324,9.273,6.803,15.027,6.803h80.832c11.045,0,19.998-8.954,19.998-19.999S278.102,186.055,267.057,186.055z"/>
	</g>
</g>
<g>
	<g>
		<path d="M243.483,103.225c-2.259-0.345-4.502-0.513-6.72-0.513c-21.434,0.001-40.245,15.642-43.58,37.483
			c-1.671,10.94,0.838,21.547,6.319,30.221c0-0.001,74.363,0.462,74.587,0.111c3.188-5.013,5.41-10.754,6.365-17.003
			C284.134,129.426,267.582,106.906,243.483,103.225z"/>
	</g>
</g>
<g>
	<g>
		<path d="M394.02,201.506h-22.498V124.58l18.939-46.352c2.306-5.642-0.4-12.085-6.042-14.391c-5.643-2.306-12.083,0.4-14.391,6.043
			c-16.813,41.15-26.777,65.536-43.482,106.42c-2.307,5.643,0.398,12.086,6.041,14.391c5.644,2.306,12.085-0.402,14.391-6.042
			l2.469-6.045v33.939c0,6.095,4.942,11.036,11.037,11.036h33.535c6.095,0,11.037-4.941,11.037-11.036
			C405.058,206.447,400.115,201.506,394.02,201.506z"/>
	</g>
</g>
<g>
	<g>
		<path d="M496.918,238.157c-2.519,0-289.354,0-295.608,0c-8.248,0-15.083,6.696-15.083,15.083c0,8.375,6.826,15.083,15.083,15.083
			h7.335V432.45c0,9.133,7.404,16.537,16.537,16.537h0.067c9.133,0,16.537-7.404,16.537-16.537V268.324c7.566,0,206.813,0,215.632,0
			v164.127c0,9.133,7.404,16.537,16.537,16.537h0.067c9.133,0,16.537-7.404,16.537-16.537V268.324h6.36
			c8.331,0,15.083-6.753,15.083-15.083C512,244.91,505.247,238.157,496.918,238.157z"/>
	</g>
</g>
</svg>